<?xml version="1.0" encoding="UTF-8" standalone="no"?>
<!DOCTYPE svg PUBLIC "-//W3C//DTD SVG 1.1//EN" "http://www.w3.org/Graphics/SVG/1.1/DTD/svg11.dtd">
<svg width="100%" height="100%" viewBox="0 0 515 156" version="1.1" xmlns="http://www.w3.org/2000/svg" xmlns:xlink="http://www.w3.org/1999/xlink" xml:space="preserve" xmlns:serif="http://www.serif.com/" style="fill-rule:evenodd;clip-rule:evenodd;stroke-linejoin:round;stroke-miterlimit:2;">
    <g id="Ebene-2" serif:id="Ebene 2" transform="matrix(1,0,0,1,-163.51,-219.887)">
        <g transform="matrix(1,0,0,1,358.832,346.589)">
            <path d="M0,-39.954L6.956,-39.954L-7.465,0L-13.573,0L-28.164,-39.954L-21.123,-39.954L-10.52,-9.331L0,-39.954Z" style="fill:white;fill-rule:nonzero;"/>
        </g>
        <g transform="matrix(1,0,0,1,400.315,330.302)">
            <path d="M0,-7.465C-0.594,-17.984 -8.144,-19.765 -11.452,-19.765C-17.221,-19.765 -22.056,-15.524 -22.819,-7.465L0,-7.465ZM7.38,3.987C6.447,6.702 2.884,17.475 -10.688,17.475C-22.564,17.475 -30.283,9.417 -30.283,-4.071C-30.283,-19.171 -19.425,-24.94 -10.943,-24.94C-3.563,-24.94 4.241,-20.867 6.617,-10.773C7.38,-7.38 7.38,-4.326 7.38,-2.629L-22.989,-2.629C-23.158,4.072 -19.595,12.386 -10.095,12.386C-4.072,12.386 -0.679,8.398 0.509,3.054L7.38,3.987Z" style="fill:white;fill-rule:nonzero;"/>
        </g>
        <g transform="matrix(1,0,0,1,423.222,345.317)">
            <path d="M0,-38.682L0,-32.828C3.733,-39.361 10.095,-39.954 12.471,-39.954C17.56,-39.954 23.668,-37.41 25.619,-30.792C26.298,-28.417 26.298,-25.957 26.298,-22.564L26.298,1.272L19.596,1.272L19.596,-21.462C19.596,-25.534 19.596,-26.72 19.171,-28.078C17.983,-31.896 14.252,-33.592 10.604,-33.592C7.636,-33.592 5.091,-32.659 2.97,-30.538C0,-27.57 0,-24.515 0,-21.546L0,1.272L-6.786,1.272L-6.786,-38.682L0,-38.682Z" style="fill:white;fill-rule:nonzero;"/>
        </g>
        <g transform="matrix(1,0,0,1,477.177,347.268)">
            <path d="M0,-40.633L0,-35.034L-7.295,-35.034L-7.295,-12.13C-7.295,-7.38 -7.295,-5.344 -4.411,-5.344C-3.139,-5.344 -1.357,-5.854 0,-6.277L0,-0.679C-1.187,-0.509 -3.987,0 -6.532,0C-14.336,0 -14.336,-3.818 -14.252,-9.077L-14.252,-35.034L-20.613,-35.034L-20.613,-40.633L0,-40.633Z" style="fill:white;fill-rule:nonzero;"/>
        </g>
        <g transform="matrix(1,0,0,1,485.406,347.607)">
            <path d="M0,-40.972L6.701,-40.972L6.701,-18.153C6.701,-13.996 6.701,-13.658 6.871,-12.639C7.55,-7.465 11.707,-6.362 14.845,-6.362C19.001,-6.362 22.141,-8.059 23.837,-10.179C26.297,-13.063 26.297,-16.202 26.297,-20.952L26.297,-40.972L32.998,-40.972L32.998,-1.018L26.297,-1.018L26.297,-7.125C25.024,-5.429 20.952,0 12.64,0C7.041,0 4.156,-2.544 2.884,-4.072C0,-7.38 0,-10.858 0,-17.56L0,-40.972Z" style="fill:white;fill-rule:nonzero;"/>
        </g>
        <g transform="matrix(1,0,0,1,536.392,346.08)">
            <path d="M0,-39.445L0,-32.149C3.816,-39.699 11.027,-39.869 13.742,-39.954L13.742,-32.659C12.893,-32.743 12.046,-32.828 10.942,-32.828C7.04,-32.828 3.647,-31.301 1.696,-28.078C-0.086,-25.109 0,-21.631 0,-17.983L0,0.509L-6.786,0.509L-6.786,-39.445L0,-39.445Z" style="fill:white;fill-rule:nonzero;"/>
        </g>
        <g transform="matrix(1,0,0,1,584.236,330.302)">
            <path d="M0,-7.465C-0.595,-17.984 -8.144,-19.765 -11.452,-19.765C-17.221,-19.765 -22.057,-15.524 -22.819,-7.465L0,-7.465ZM7.38,3.987C6.446,6.702 2.884,17.475 -10.689,17.475C-22.565,17.475 -30.284,9.417 -30.284,-4.071C-30.284,-19.171 -19.427,-24.94 -10.944,-24.94C-3.563,-24.94 4.241,-20.867 6.615,-10.773C7.38,-7.38 7.38,-4.326 7.38,-2.629L-22.99,-2.629C-23.159,4.072 -19.596,12.386 -10.095,12.386C-4.072,12.386 -0.68,8.398 0.508,3.054L7.38,3.987Z" style="fill:white;fill-rule:nonzero;"/>
        </g>
        <g transform="matrix(1,0,0,1,613.504,324.365)">
            <path d="M0,4.581C-6.446,3.054 -14.336,1.272 -14.336,-7.041C-14.336,-14.336 -8.144,-18.917 1.104,-18.917C8.738,-18.917 16.881,-15.269 18.238,-5.854L10.943,-4.92C10.858,-7.38 10.689,-9.331 8.06,-11.367C5.43,-13.403 2.375,-13.742 0.34,-13.742C-4.92,-13.742 -7.549,-10.605 -7.549,-7.89C-7.549,-4.072 -3.224,-2.884 2.036,-1.611L5.853,-0.679C10.604,0.424 19.171,2.46 19.171,10.857C19.171,17.39 13.403,23.498 2.375,23.498C-2.12,23.498 -6.786,22.563 -10.01,20.273C-11.281,19.341 -15.184,16.117 -15.947,9.416L-8.313,8.228C-8.397,10.01 -8.397,13.403 -5.344,16.033C-2.969,18.068 0,18.323 2.715,18.323C8.653,18.323 12.131,16.033 12.131,11.706C12.131,7.126 8.653,6.277 3.818,5.344L0,4.581Z" style="fill:white;fill-rule:nonzero;"/>
        </g>
        <g transform="matrix(1,0,0,1,368.549,290.888)">
            <path d="M0,-42.415L-13.912,0L-24.855,0L-38.597,-42.415L-28.079,-42.415L-19.256,-13.234L-10.604,-42.415L0,-42.415Z" style="fill:white;fill-rule:nonzero;"/>
        </g>
        <g transform="matrix(1,0,0,1,378.9,261.028)">
            <path d="M0,17.304C2.544,20.443 6.362,22.733 12.215,22.733C18.068,22.733 20.613,19.849 20.613,17.729C20.613,15.014 17.559,14.336 16.202,14.081C14.76,13.741 7.804,12.469 6.276,12.046C-3.817,9.67 -5.684,3.816 -5.684,0C-5.684,-7.211 0.847,-13.828 12.47,-13.828C18.916,-13.828 23.582,-11.792 26.466,-9.756C28.586,-8.399 29.943,-6.956 30.792,-5.939L23.582,0.763C22.394,-1.527 19.51,-5.684 12.045,-5.684C7.21,-5.684 5.004,-3.563 5.004,-1.358C5.004,1.696 8.144,2.545 13.573,3.477C22.394,5.089 24.854,5.513 27.569,7.634C30.199,9.67 31.895,13.063 31.895,16.626C31.895,23.242 25.958,31.132 12.809,31.132C5.259,31.132 -2.206,28.756 -7.55,23.582L0,17.304Z" style="fill:white;fill-rule:nonzero;"/>
        </g>
        <g transform="matrix(1,0,0,1,506.997,291.905)">
            <path d="M0,-43.432L0,-1.017L-10.18,-1.017L-10.18,-5.344C-11.961,-3.647 -16.117,0 -23.922,0C-30.877,0 -34.186,-2.969 -35.712,-4.92C-38.598,-8.567 -38.598,-12.554 -38.598,-18.917L-38.598,-43.432L-28.332,-43.432L-28.332,-19.086C-28.332,-17.389 -28.332,-15.947 -27.993,-14.845C-26.891,-11.112 -23.837,-9.501 -20.104,-9.501C-15.862,-9.501 -13.233,-11.791 -11.876,-13.996C-10.349,-16.795 -10.265,-19.51 -10.18,-25.448L-10.18,-43.432L0,-43.432Z" style="fill:white;fill-rule:nonzero;"/>
        </g>
        <g transform="matrix(1,0,0,1,542.968,269.341)">
            <path d="M0,0.425C-2.036,1.443 -4.327,2.206 -8.907,2.969C-12.555,3.478 -17.391,4.326 -17.391,8.822C-17.391,12.131 -14.591,13.827 -10.52,13.827C-5.345,13.827 -1.697,11.452 -0.594,8.907C0,7.635 0,6.362 0,5.091L0,0.425ZM-26.212,-8.397C-26.043,-10.518 -25.873,-12.3 -24.517,-14.76C-20.444,-22.14 -10.35,-22.14 -7.636,-22.14C-3.563,-22.14 1.357,-21.631 5.089,-19.426C10.095,-16.371 10.18,-12.384 10.18,-7.803L10.18,14.676C10.18,17.899 10.18,19.002 12.046,21.547L0,21.547C-0.086,20.529 -0.255,18.833 -0.255,18.239C-2.46,20.105 -6.956,22.565 -12.81,22.565C-22.395,22.565 -28.163,16.627 -28.163,9.332C-28.163,7.211 -27.654,5.26 -26.807,3.563C-23.752,-2.545 -17.22,-3.902 -13.148,-4.665C-4.411,-6.446 -3.733,-6.617 0,-7.803C0,-9.925 -0.17,-14.251 -7.211,-14.251C-11.452,-14.251 -13.742,-12.893 -14.761,-11.536C-15.862,-10.179 -15.778,-8.991 -15.778,-7.803L-26.212,-8.397Z" style="fill:white;fill-rule:nonzero;"/>
        </g>
        <g transform="matrix(1,0,0,1,573.848,289.701)">
            <path d="M0,-41.228L0,-35.205C1.273,-37.41 4.071,-42.415 13.572,-42.161L13.572,-31.727C11.367,-31.643 7.55,-31.557 4.411,-29.182C0.085,-25.874 0,-21.548 0,-14.506L0,1.187L-9.84,1.187L-9.84,-41.228L0,-41.228Z" style="fill:white;fill-rule:nonzero;"/>
        </g>
        <g transform="matrix(1,0,0,1,620.779,275.109)">
            <path d="M0,-10.857C-0.934,-17.474 -5.005,-19.765 -9.501,-19.765C-14.931,-19.765 -18.663,-16.626 -19.851,-10.857L0,-10.857ZM11.536,6.278C6.276,13.318 -0.51,17.051 -9.162,17.051C-20.274,17.051 -30.963,10.01 -30.963,-5.598C-30.963,-19.85 -21.801,-27.908 -9.84,-27.908C1.356,-27.908 6.022,-21.207 6.87,-19.934C10.349,-15.014 11.111,-7.634 11.196,-3.392L-20.189,-3.392C-19.002,3.309 -14.846,7.126 -8.144,7.126C-1.188,7.126 1.611,3.054 2.884,1.273L11.536,6.278Z" style="fill:white;fill-rule:nonzero;"/>
        </g>
        <g transform="matrix(1,0,0,1,665.911,262.64)">
            <path d="M0,-2.121C-1.527,-4.411 -4.072,-6.023 -7.466,-6.023C-14.336,-6.023 -17.645,0.169 -17.645,6.871C-17.645,7.634 -17.56,20.358 -7.635,20.358C-2.375,20.358 2.375,16.456 2.29,7.295C2.205,4.581 1.866,0.678 0,-2.121M12.469,-31.641L12.469,28.248L2.375,28.248L2.375,24.176C-0.764,27.993 -5.005,29.52 -9.417,29.52C-19.511,29.52 -28.249,21.971 -28.249,7.974C-28.249,-4.666 -21.123,-15.439 -8.992,-15.439C-4.836,-15.439 -0.849,-14.251 2.375,-10.689L2.375,-31.641L12.469,-31.641Z" style="fill:white;fill-rule:nonzero;"/>
        </g>
        <g transform="matrix(1,0,0,1,437.992,256.533)">
            <path d="M0,26.295C-6.107,26.295 -11.451,21.46 -11.451,12.723C-11.451,4.919 -6.872,-0.172 -0.511,-0.172C6.617,-0.172 10.688,5.767 10.858,12.807C11.111,19.849 7.379,26.295 0,26.295M29.592,34.355L19.192,23.955C20.715,20.767 21.547,17.054 21.547,12.978C21.461,-1.104 11.367,-9.332 -0.426,-9.332C-13.064,-9.332 -22.057,-0.001 -22.057,12.978C-22.057,25.957 -13.235,35.627 0,35.627C5.176,35.627 9.686,34.088 13.224,31.383L16.195,34.355L29.592,34.355Z" style="fill:white;fill-rule:nonzero;"/>
        </g>
        <g transform="matrix(1,0,0,1,227.372,311.528)">
            <path d="M0,14.827L63.863,-49.035L63.749,-0L-0.114,63.862L0.114,63.862L-63.749,-0L-63.862,-49.035L0,14.827Z" style="fill:white;fill-rule:nonzero;"/>
        </g>
        <g transform="matrix(1,0,0,1,227.372,239.413)">
            <path d="M0,26.634L19.534,46.16L42.606,23.08L0,-19.526L-42.606,23.08L-19.534,46.16L0,26.634Z" style="fill:white;fill-rule:nonzero;"/>
        </g>
    </g>
</svg>
